<mxfile host="app.diagrams.net" agent="Mozilla/5.0 (Macintosh; Intel Mac OS X 10_15_7) AppleWebKit/537.36 (KHTML, like Gecko) Chrome/129.0.0.0 Safari/537.36 Edg/129.0.0.0" version="24.7.17">
  <diagram name="Page-1" id="74e2e168-ea6b-b213-b513-2b3c1d86103e">
    <mxGraphModel dx="2019" dy="1159" grid="1" gridSize="10" guides="1" tooltips="1" connect="1" arrows="1" fold="1" page="1" pageScale="1" pageWidth="1100" pageHeight="850" background="none" math="0" shadow="0">
      <root>
        <mxCell id="0" />
        <mxCell id="1" parent="0" />
        <mxCell id="77e6c97f196da883-1" value="Pool" style="swimlane;html=1;childLayout=stackLayout;startSize=20;rounded=0;shadow=0;labelBackgroundColor=none;strokeWidth=1;fontFamily=Verdana;fontSize=8;align=center;" parent="1" vertex="1">
          <mxGeometry x="70" y="40" width="960" height="750" as="geometry" />
        </mxCell>
        <mxCell id="77e6c97f196da883-2" value="WebState" style="swimlane;html=1;startSize=20;" parent="77e6c97f196da883-1" vertex="1">
          <mxGeometry y="20" width="160" height="730" as="geometry" />
        </mxCell>
        <mxCell id="77e6c97f196da883-3" value="Lane 2" style="swimlane;html=1;startSize=20;" parent="77e6c97f196da883-1" vertex="1">
          <mxGeometry x="160" y="20" width="160" height="730" as="geometry" />
        </mxCell>
        <mxCell id="77e6c97f196da883-4" value="Lane 3" style="swimlane;html=1;startSize=20;" parent="77e6c97f196da883-1" vertex="1">
          <mxGeometry x="320" y="20" width="160" height="730" as="geometry" />
        </mxCell>
        <mxCell id="77e6c97f196da883-5" value="Lane 4" style="swimlane;html=1;startSize=20;" parent="77e6c97f196da883-1" vertex="1">
          <mxGeometry x="480" y="20" width="160" height="730" as="geometry" />
        </mxCell>
        <mxCell id="77e6c97f196da883-6" value="Lane 5" style="swimlane;html=1;startSize=20;" parent="77e6c97f196da883-1" vertex="1">
          <mxGeometry x="640" y="20" width="160" height="730" as="geometry" />
        </mxCell>
        <mxCell id="77e6c97f196da883-7" value="Lane 6" style="swimlane;html=1;startSize=20;" parent="77e6c97f196da883-1" vertex="1">
          <mxGeometry x="800" y="20" width="160" height="730" as="geometry" />
        </mxCell>
      </root>
    </mxGraphModel>
  </diagram>
</mxfile>
